<?xml version="1.0" encoding="utf-8"?>

<!DOCTYPE svg PUBLIC "-//W3C//DTD SVG 1.1//EN" "http://www.w3.org/Graphics/SVG/1.1/DTD/svg11.dtd">
<!-- Uploaded to: SVG Repo, www.svgrepo.com, Generator: SVG Repo Mixer Tools -->
<svg height="800px" width="800px" version="1.1" id="_x32_" xmlns="http://www.w3.org/2000/svg" xmlns:xlink="http://www.w3.org/1999/xlink" 
	 viewBox="0 0 512 512"  xml:space="preserve">
<style type="text/css">
	.st0{fill:#000000;}
</style>
<g>
	<path class="st0" d="M498.633,398.055c-9.584,3.916-21.347,6.808-35.195,8.894c3.881,10.224,3.325,20.956-11.454,26.234
		c-9.626,3.442-38.237,5.361-74.671,6.234c-7.739-2.086-14.721-5.478-14.721-10.94c0-5.02,0-10.34,0-16.391
		c-0.066,0-0.133,0-0.199,0c-5.977,0-11.878-0.026-17.672-0.034c-5.536-0.025-10.964-0.033-16.234-0.033
		c-0.386,0-0.786-0.033-1.172-0.033c0,4.006,0,7.373,0,9.443c0,6.667-7.111,14.497-19.613,18.503
		c-76.786-0.432-158.035-3.59-174.456-6.749c-14.43-2.776-19.172-18.387-20.145-34.114H75.615c0,1.662-0.752,16.64-0.752,18.104
		c0,22.677-7.132,11.338-71.828,11.338c-4.106,4.115-3.873,24.663-0.34,32.901c3.52,8.245,154.112,16.143,245.818,18.819
		c106.05,3.101,266.171,10.54,263.453-51.753C511.533,418.62,505.781,407.806,498.633,398.055z"/>
	<path class="st0" d="M154.416,384.963v-38.81c49.4,0,109.387,51.744,174.07,51.744c64.696,0,152.907,2.352,178.774-21.172v-14.114
		c0,0,3.541-52.934-47.039-68.212c-50.572-15.295-160.317-68.876-172.898-108.211c-9.41-29.41-8.238-118.793-8.238-130.554
		c0-11.762-9.401-32.934-42.335-23.524c-32.934,9.41-122.322,34.114-137.616,39.991c-15.291,5.877-27.052,14.106-27.052,22.352
		c0,23.516,1.171,63.516-16.467,116.44c-17.643,52.917-25.868,125.85-3.52,174.07H154.416z M394.254,296.038
		c8.354,0,15.12,6.766,15.12,15.12c0,8.346-6.766,15.112-15.12,15.112c-8.354,0-15.12-6.766-15.12-15.112
		C379.133,302.804,385.9,296.038,394.254,296.038z M337.555,271.466c8.346,0,15.112,6.767,15.112,15.12
		c0,8.346-6.766,15.112-15.112,15.112c-8.35,0-15.116-6.766-15.116-15.112C322.438,278.232,329.205,271.466,337.555,271.466z
		 M283.69,232.905c8.35,0,15.116,6.766,15.116,15.12c0,8.346-6.766,15.112-15.116,15.112c-8.35,0-15.112-6.766-15.112-15.112
		C268.578,239.671,275.34,232.905,283.69,232.905z M253.45,187.552c0,8.346-6.767,15.112-15.116,15.112
		c-8.35,0-15.116-6.766-15.116-15.112c0-8.354,6.766-15.12,15.116-15.12C246.684,172.432,253.45,179.198,253.45,187.552z
		 M227.948,105.335c8.349,0,15.116,6.766,15.116,15.12c0,8.346-6.767,15.112-15.116,15.112c-8.35,0-15.116-6.766-15.116-15.112
		C212.831,112.101,219.598,105.335,227.948,105.335z"/>
</g>
</svg>